<?xml version="1.0" encoding="utf-8"?>
<!-- Generator: Adobe Illustrator 16.0.0, SVG Export Plug-In . SVG Version: 6.00 Build 0)  -->
<!DOCTYPE svg PUBLIC "-//W3C//DTD SVG 1.1//EN" "http://www.w3.org/Graphics/SVG/1.1/DTD/svg11.dtd">
<svg version="1.1" id="Layer_1" xmlns="http://www.w3.org/2000/svg" xmlns:xlink="http://www.w3.org/1999/xlink" x="0px" y="0px"
	 width="32px" height="32px" viewBox="0 0 32 32" enable-background="new 0 0 32 32" xml:space="preserve">
<path fill="#1D1D1B" d="M16.88,17.67L30.2,4.11C29.97,4.05,29.74,4,29.49,4H2.53C2.29,4,2.05,4.05,1.82,4.11l13.32,13.56
	C15.6,18.14,16.41,18.14,16.88,17.67z M18.7,19.52c-0.73,0.73-1.69,1.14-2.69,1.14c-1.02,0-1.98-0.4-2.7-1.14L0.06,6.03
	C0.03,6.2,0,6.38,0,6.56v18.87C0,26.85,1.13,28,2.52,28h26.95c1.4,0,2.53-1.15,2.53-2.57V6.56c0-0.19-0.02-0.36-0.06-0.53
	L18.7,19.52z"/>
</svg>
