<?xml version="1.0" encoding="utf-8"?>
<!DOCTYPE svg PUBLIC "-//W3C//DTD SVG 1.1//EN" "http://www.w3.org/Graphics/SVG/1.1/DTD/svg11.dtd">
<svg version="1.1" id="Layer_1" xmlns="http://www.w3.org/2000/svg" xmlns:xlink="http://www.w3.org/1999/xlink" x="0px" y="0px"
	 width="32px" height="32px" viewBox="0 0 32 32" enable-background="new 0 0 32 32" xml:space="preserve">
<path fill="#231F20" d="M29.33,16c0-3.6-1.52-7.06-3.9-9.44c-2.38-2.38-5.83-3.9-9.44-3.9c-3.61,0-7.04,1.52-9.42,3.9
	C4.19,8.94,2.66,12.4,2.66,16c0,5.81,3.81,10.98,9.33,12.71v-3.52c-0.75,0.1-1.23,0.15-1.44,0.15c-1.52,0-2.58-0.69-3.19-2.08
	c-0.21-0.52-0.46-0.96-0.75-1.31c-0.06-0.08-0.21-0.21-0.44-0.4s-0.42-0.35-0.58-0.5c-0.19-0.15-0.27-0.27-0.27-0.33
	c0-0.17,0.19-0.25,0.58-0.25c0.81,0,1.44,0.46,1.88,1.02c0.42,0.58,0.81,1.2,1.5,1.6c0.33,0.21,0.73,0.31,1.17,0.31
	c0.58,0,1.15-0.1,1.69-0.3c0.23-0.79,0.67-1.42,1.31-1.85c-4.6-0.44-6.79-2.06-6.79-6.42c0-1.65,0.5-3.02,1.52-4.12
	C8,10.12,7.89,9.53,7.89,8.95c0-0.81,0.19-1.56,0.56-2.27c1.58,0,2.62,0.52,4.21,1.67c1.06-0.25,2.23-0.38,3.52-0.38
	c1.1,0,2.17,0.1,3.19,0.33c1.58-1.1,2.6-1.62,4.17-1.62c0.38,0.71,0.56,1.46,0.56,2.27c0,0.6-0.1,1.17-0.29,1.73
	c1.02,1.15,1.52,2.52,1.52,4.15c0,4.35-2.19,6.02-6.77,6.44C19.52,21.92,20,22.83,20,24v4.71C25.52,26.99,29.33,21.82,29.33,16z
	 M29.85,7.96C31.29,10.42,32,13.1,32,16c0,5.81-3.06,11-7.96,13.85C21.58,31.29,18.9,32,16,32c-5.81,0-11-3.06-13.85-7.98
	C0.71,21.58,0,18.9,0,16C0,10.19,3.06,5,7.98,2.15C10.42,0.71,13.1,0,16,0C21.81,0,27,3.07,29.85,7.96z"/>
</svg>
