<?xml version="1.0" encoding="utf-8"?>
<!DOCTYPE svg PUBLIC "-//W3C//DTD SVG 1.1//EN" "http://www.w3.org/Graphics/SVG/1.1/DTD/svg11.dtd">
<svg version="1.1" id="Layer_1" xmlns="http://www.w3.org/2000/svg" xmlns:xlink="http://www.w3.org/1999/xlink" x="0px" y="0px"
	 width="32px" height="32px" viewBox="0 0 32 32" enable-background="new 0 0 32 32" xml:space="preserve">
<path fill="#1D1D1B" d="M16.85,25.72c0-0.54-0.13-1.06-0.27-1.48c-0.06-0.22-0.19-0.43-0.33-0.65c-0.17-0.23-0.31-0.43-0.4-0.6
	c-0.23-0.31-0.81-0.83-1.04-1.06c-0.25-0.21-1-0.77-1.21-0.93c-0.23-0.15-1.08-0.75-1.23-0.85c-0.21-0.02-0.54-0.03-0.96-0.03
	c-1.4,0-2.68,0.14-4.11,0.61c-1.44,0.46-2.52,1.11-3.21,2.32c-0.35,0.6-0.52,1.29-0.52,2.06c0,1.75,1,3.18,2.48,3.94
	c1.46,0.79,3.1,1.18,4.75,1.18c1.52,0,2.88-0.31,4.1-1C16.1,28.56,16.85,27.33,16.85,25.72z M14.55,9.14c0-1.54-0.44-3.35-1.21-4.96
	c-0.79-1.61-2.23-2.79-3.92-2.79c-2.4,0-3.75,2.04-3.75,4.5c0,1.21,0.29,2.58,0.9,3.9c0.61,1.32,1.4,2.42,2.58,3.1
	c0.6,0.33,1.21,0.5,1.87,0.5C13.48,13.39,14.55,11.7,14.55,9.14z M12.02,0h8.4l-2.6,1.52h-2.6c1.82,1.15,2.86,3.43,2.86,5.68
	c0,1.9-0.67,3.4-1.52,4.31c-0.43,0.44-0.85,0.86-1.27,1.23c-0.85,0.77-1.52,1.56-1.52,2.48c0,0.67,0.47,1.31,1.15,1.9
	c0.32,0.29,0.71,0.6,1.11,0.92c0.83,0.64,1.67,1.43,2.36,2.33c0.68,0.92,1.14,2.23,1.14,3.69c0,4.1-3.9,7.94-10.77,7.94
	c-1.52,0-3.06-0.23-4.64-0.85c-1.57-0.6-2.81-1.43-3.57-2.82c-0.38-0.7-0.56-1.47-0.56-2.33c0-1.56,0.93-3.54,2.56-4.73
	c1.64-1.19,3.87-1.75,5.77-2.06c0.94-0.13,1.9-0.23,2.9-0.25c-0.83-1.06-1.23-2.02-1.23-2.86c0-0.31,0.06-0.61,0.15-0.83
	c0.07-0.21,0.23-0.61,0.28-0.82c-0.52,0.06-0.96,0.1-1.35,0.1c-3.83,0-6.96-2.83-6.96-6.61c0-3.6,2.77-6.75,6.33-7.54
	C9.64,0.14,10.84,0,12.02,0z M27.09,4.93h4.92v2.46h-4.92v4.93h-2.46V7.39H19.7V4.93h4.92V0.01h2.46L27.09,4.93L27.09,4.93z"/>
</svg>
