<?xml version="1.0" encoding="utf-8"?>
<!DOCTYPE svg PUBLIC "-//W3C//DTD SVG 1.1//EN" "http://www.w3.org/Graphics/SVG/1.1/DTD/svg11.dtd">
<svg version="1.1" id="Layer_1" xmlns="http://www.w3.org/2000/svg" xmlns:xlink="http://www.w3.org/1999/xlink" x="0px" y="0px"
	 width="32px" height="32px" viewBox="0 0 32 32" enable-background="new 0 0 32 32" xml:space="preserve">
<path fill="#231F20" d="M7.27,31.29V10.66H0.4v20.64H7.27z M3.83,7.84c2.39,0,3.88-1.58,3.88-3.57C7.67,2.25,6.23,0.71,3.88,0.71
	C1.53,0.71,0,2.25,0,4.27c0,1.98,1.49,3.57,3.79,3.57H3.83L3.83,7.84z M17.92,31.29V19.77c0-0.62,0.04-1.23,0.23-1.68
	c0.5-1.23,1.62-2.51,3.52-2.51c2.48,0,3.48,1.89,3.48,4.67v11.04H32V19.46c0-6.34-3.38-9.29-7.9-9.29c-3.7,0-5.28,2.07-6.18,3.48
	l0,0v-2.99h-6.86v20.64L17.92,31.29L17.92,31.29z"/>
</svg>
