<?xml version="1.0" encoding="utf-8"?>
<!DOCTYPE svg PUBLIC "-//W3C//DTD SVG 1.1//EN" "http://www.w3.org/Graphics/SVG/1.1/DTD/svg11.dtd">
<svg version="1.1" id="Layer_1" xmlns="http://www.w3.org/2000/svg" xmlns:xlink="http://www.w3.org/1999/xlink" x="0px" y="0px"
	 width="32px" height="32px" viewBox="0 0 32 32" enable-background="new 0 0 32 32" xml:space="preserve">
<path fill="#231F20" d="M23.16,26.49c0.58,1.54,1.96,2.29,3.61,2.75c0.15,0.77,0.37,1.46,0.34,2.41c-3.75,1.19-6.87-0.82-7.91-3.44
	c-11,2.06-17.75-4.78-17.02-14.96C2.69,6.18,8.28,0.21,15.77,0.01c9.2-0.25,14.1,5.99,14.1,14.1C29.87,19.66,27.1,24.24,23.16,26.49
	z M15.77,3.62C6.43,4.1,5.39,27.16,17.66,24.94c-0.26-1.63-1.74-2.04-3.27-2.41c-0.22-0.64-0.28-1.44-0.34-2.23
	c3.22-1.42,5.97,1.15,7.39,2.06C24.42,16.21,24.22,3.18,15.77,3.62z"/>
</svg>
