<?xml version="1.0" encoding="utf-8"?>
<!-- Generator: Adobe Illustrator 16.0.0, SVG Export Plug-In . SVG Version: 6.00 Build 0)  -->
<!DOCTYPE svg PUBLIC "-//W3C//DTD SVG 1.1//EN" "http://www.w3.org/Graphics/SVG/1.1/DTD/svg11.dtd">
<svg version="1.1" id="Layer_1" xmlns="http://www.w3.org/2000/svg" xmlns:xlink="http://www.w3.org/1999/xlink" x="0px" y="0px"
	 width="32px" height="32px" viewBox="0 0 32 32" enable-background="new 0 0 32 32" xml:space="preserve">
<path fill="#231F20" d="M30.48,15.25c-0.12,0.09-0.24,0.16-0.36,0.24V3.11C30.12,1.4,28.83,0,27.24,0H4.78C3.19,0,1.9,1.39,1.9,3.11
	v12.4c-0.13-0.09-0.26-0.17-0.39-0.26c-0.96-0.66-1.58,0.24-1,1.11c1.15,1.4,3.32,3.13,6.64,4.49c-3.52,11.99,8.58,13.89,8.4,7.74
	c0.01,0.12,0.01-3.48,0.02-6.03c0.32,0.07,0.6,0.15,0.86,0.21c0,2.54,0.01,5.94,0.02,5.82c-0.18,6.15,11.93,4.25,8.4-7.74
	c3.32-1.36,5.5-3.09,6.64-4.49C32.07,15.49,31.44,14.59,30.48,15.25z M18.54,18.3c-1.48-0.07-2.03,0.56-2.11,1.55
	c-0.36-0.26-0.73-0.56-1.1-0.91c-0.06-0.06-0.11-0.09-0.16-0.13c-0.13-0.15-0.31-0.26-0.52-0.35c-0.02-0.01-0.04-0.02-0.06-0.02
	c-0.29-0.1-0.66-0.16-1.12-0.13c-1.99,0.06-5.61,0.45-9.84-1.76V4.52c0-2.17,0.55-2.86,2.55-2.86h19.86c1.89,0,2.56,0.81,2.56,2.86
	v11.91C24.28,18.77,20.56,18.36,18.54,18.3z M15.59,13.22c0,1.99-1.73,3.61-3.85,3.61c-2.13,0-3.85-1.61-3.85-3.61
	c0-1.99,1.73-3.61,3.85-3.61C13.86,9.61,15.59,11.23,15.59,13.22z M24.54,13.22c0,2-1.72,3.61-3.85,3.61
	c-2.12,0-3.85-1.62-3.85-3.61c0-1.99,1.73-3.61,3.85-3.61C22.82,9.61,24.54,11.23,24.54,13.22z"/>
</svg>
