<?xml version="1.0" encoding="utf-8"?>
<!DOCTYPE svg PUBLIC "-//W3C//DTD SVG 1.1//EN" "http://www.w3.org/Graphics/SVG/1.1/DTD/svg11.dtd">
<svg version="1.1" id="Layer_1" xmlns="http://www.w3.org/2000/svg" xmlns:xlink="http://www.w3.org/1999/xlink" x="0px" y="0px"
	 width="32px" height="32px" viewBox="0 0 32 32" enable-background="new 0 0 32 32" xml:space="preserve">
<path fill="#231F20" d="M32,6.08c-1.18,0.52-2.44,0.88-3.77,1.03c1.35-0.81,2.4-2.1,2.89-3.63c-1.27,0.75-2.67,1.3-4.17,1.59
	C25.75,3.79,24.04,3,22.15,3c-3.63,0-6.56,2.94-6.56,6.56c0,0.51,0.06,1.02,0.17,1.5C10.3,10.78,5.47,8.17,2.23,4.2
	C1.66,5.17,1.34,6.3,1.34,7.5c0,2.28,1.16,4.29,2.92,5.46c-1.08-0.03-2.09-0.33-2.97-0.82c0,0.03,0,0.05,0,0.08
	c0,3.18,2.26,5.83,5.27,6.44C6,18.81,5.42,18.89,4.82,18.89c-0.42,0-0.83-0.04-1.24-0.12c0.84,2.61,3.26,4.51,6.13,4.56
	c-2.25,1.76-5.08,2.81-8.15,2.81c-0.53,0-1.05-0.03-1.57-0.09C2.91,27.92,6.36,29,10.06,29c12.08,0,18.68-10,18.68-18.68
	c0-0.28-0.01-0.57-0.02-0.85C30.01,8.55,31.12,7.39,32,6.08z"/>
</svg>
