<svg xmlns="http://www.w3.org/2000/svg"><symbol id="github" viewBox="0 0 512 512"><title>Github</title><path d="M296.133 354.174c49.885-5.891 102.942-24.029 102.942-110.192 0-24.49-8.624-44.448-22.67-59.869 2.266-5.89 9.515-28.114-2.734-58.947 0 0-18.139-5.898-60.759 22.669-18.139-4.983-38.09-8.163-56.682-8.163-19.053 0-39.011 3.18-56.697 8.163-43.082-28.567-61.22-22.669-61.22-22.669-12.241 30.833-4.983 53.057-2.718 58.947-14.061 15.42-22.677 35.379-22.677 59.869 0 86.163 53.057 104.301 102.942 110.192-6.344 5.452-12.241 15.873-14.507 30.387-12.702 5.438-45.808 15.873-65.758-18.592 0 0-11.795-21.31-34.012-22.669 0 0-22.224-.453-1.813 13.592 0 0 14.96 6.812 24.943 32.653 0 0 13.6 43.089 76.179 29.48v38.543c0 5.906-4.53 12.702-15.865 10.89C96.139 438.977 32.2 354.626 32.2 255.77c0-123.807 100.216-224.022 224.03-224.022 123.347 0 224.023 100.216 223.57 224.022 0 98.856-63.946 182.754-152.828 212.688-11.342 2.266-15.873-4.53-15.873-10.89V395.45c.001-20.873-6.811-34.465-14.966-41.276zM512 256.23C512 114.73 397.263 0 256.23 0 114.73 0 0 114.73 0 256.23 0 397.263 114.73 512 256.23 512 397.263 512 512 397.263 512 256.23z" fill-rule="evenodd"/></symbol><symbol id="linkedin" viewBox="0 0 512 512"><title>LinkedIn</title><path d="M510.952 311.005v188.902H401.438v-176.25c0-44.276-15.84-74.492-55.48-74.492-30.26 0-48.268 20.363-56.19 40.062-2.89 7.042-3.633 16.843-3.633 26.701v183.98h-109.55s1.475-298.511 0-329.44h109.54v46.697c-.223.35-.512.726-.72 1.065h.72v-1.065c14.553-22.415 40.543-54.436 98.719-54.436 72.076-.001 126.108 47.085 126.108 148.276zM61.99 11.663C24.513 11.663 0 36.245 0 68.57c0 31.622 23.804 56.95 60.536 56.95h.732c38.203 0 61.961-25.324 61.961-56.95-.72-32.326-23.758-56.908-61.239-56.908zM6.506 499.907h109.51V170.47H6.505v329.438z"/></symbol><symbol id="twitter" viewBox="0 0 512 512"><title>Twitter</title><path d="M160.484 463.415c192.573 0 297.884-159.538 297.884-297.884 0-4.532-.092-9.043-.295-13.533a212.912 212.912 0 0 0 52.224-54.214c-18.76 8.338-38.946 13.951-60.123 16.482 21.615-12.961 38.21-33.465 46.039-57.907a209.97 209.97 0 0 1-66.482 25.413c-19.105-20.35-46.304-33.078-76.421-33.078-57.817 0-104.702 46.887-104.702 104.681 0 8.216.919 16.207 2.715 23.872C164.31 172.87 87.151 131.21 35.513 67.861a104.408 104.408 0 0 0-14.176 52.621c0 36.323 18.483 68.39 46.59 87.148a103.915 103.915 0 0 1-47.416-13.094c-.015.44-.015.867-.015 1.337 0 50.703 36.088 93.037 83.994 102.63a104.829 104.829 0 0 1-27.607 3.684c-6.736 0-13.299-.663-19.677-1.888 13.329 41.598 51.979 71.87 97.802 72.716-35.833 28.086-80.973 44.814-130.033 44.814-8.44 0-16.778-.48-24.973-1.449 46.335 29.7 101.354 47.029 160.487 47.029"/></symbol><symbol id="medium" viewBox="0 0 256 203"><title>Medium</title><path d="M256 29.867h-10.125c-3.759 0-9.075 5.423-9.075 8.894v125.826c0 3.475 5.316 8.213 9.075 8.213H256v29.867h-91.733V172.8h19.2V40.533h-.941L137.69 202.667h-34.712L58.72 40.533H57.6V172.8h19.2v29.867H0V172.8h9.835c4.049 0 9.365-4.738 9.365-8.213V38.76c0-3.471-5.316-8.894-9.365-8.894H0V0h96.034l31.53 117.333h.87L160.253 0H256v29.867" /></symbol><symbol id="stackoverflow" viewBox="0 0 512 512"><title>Stack Overflow</title><path d="M404.661 465.638V328.764h45.51v182.302H39.4V328.764h45.51v136.874z"/><path d="M135.148 315.784l223.412 46.608 9.457-44.838-223.413-46.608-9.456 44.838zM164.7 209.59l206.863 96.166 18.913-41.299L183.613 167.7 164.7 209.59zm57.33-101.476l175.54 145.723 28.96-34.809L250.992 73.304l-28.96 34.809zM335.51.147l-36.645 27.14 135.94 182.892 36.644-27.14L335.509.148zM130.42 419.62h228.14v-45.428H130.42v45.428z"/></symbol></svg>
